HIERARCHY
ROOT Hips
{
  OFFSET 5.72205e-005 65.662 3.42586
  CHANNELS 6 Xposition Yposition Zposition Zrotation Xrotation Yrotation
  JOINT Chest
  {
    OFFSET 0 8.7983 -4.7612
    CHANNELS 6 Xposition Yposition Zposition Zrotation Xrotation Yrotation
    JOINT Chest2
    {
      OFFSET 0 8.0291 0.4195
      CHANNELS 6 Xposition Yposition Zposition Zrotation Xrotation Yrotation
      JOINT Chest3
      {
        OFFSET 0 9.9351 -2.2114
        CHANNELS 6 Xposition Yposition Zposition Zrotation Xrotation Yrotation
        JOINT Neck
        {
          OFFSET 0 22.3885 -0.4656
          CHANNELS 6 Xposition Yposition Zposition Zrotation Xrotation Yrotation
          JOINT Head
          {
            OFFSET -0.0001 12.643 3.4389
            CHANNELS 6 Xposition Yposition Zposition Zrotation Xrotation Yrotation
            End Site
            {
              OFFSET 0.0001 17.6655 0.5274
            }
          }
        }
        JOINT LeftCollar
        {
          OFFSET 2.2603 21.606 7.4023
          CHANNELS 6 Xposition Yposition Zposition Zrotation Xrotation Yrotation
          JOINT LeftShoulder
          {
            OFFSET 13.5163 -1.1332 -5.0146
            CHANNELS 6 Xposition Yposition Zposition Zrotation Xrotation Yrotation
            JOINT LeftElbow
            {
              OFFSET -0.0995 -28.05 -0.2431
              CHANNELS 6 Xposition Yposition Zposition Zrotation Xrotation Yrotation
              JOINT LeftWrist
              {
                OFFSET 0.0679 -23.3996 -0.1402
                CHANNELS 6 Xposition Yposition Zposition Zrotation Xrotation Yrotation
                JOINT LeftFinger1
                {
                  OFFSET 0.7932 -9.069 2.5189
                  CHANNELS 6 Xposition Yposition Zposition Zrotation Xrotation Yrotation
                  JOINT LeftFinger11
                  {
                    OFFSET -0.8272 -3.3923 0.5977
                    CHANNELS 6 Xposition Yposition Zposition Zrotation Xrotation Yrotation
                    JOINT LeftFinger12
                    {
                      OFFSET -0.5649 -2.3158 0.4082
                      CHANNELS 6 Xposition Yposition Zposition Zrotation Xrotation Yrotation
                      End Site
                      {
                        OFFSET -0.4919 -1.6479 0.2673
                      }
                    }
                  }
                }
                JOINT LeftFinger2
                {
                  OFFSET 0.9159 -9.2044 0.2193
                  CHANNELS 6 Xposition Yposition Zposition Zrotation Xrotation Yrotation
                  JOINT LeftFinger21
                  {
                    OFFSET 0.0117 -4.1944 -0.0248
                    CHANNELS 6 Xposition Yposition Zposition Zrotation Xrotation Yrotation
                    JOINT LeftFinger22
                    {
                      OFFSET 0.0071 -2.3249 -0.0142
                      CHANNELS 6 Xposition Yposition Zposition Zrotation Xrotation Yrotation
                      End Site
                      {
                        OFFSET -0.1475 -2.0882 0.0028
                      }
                    }
                  }
                }
                JOINT LeftFinger3
                {
                  OFFSET 0.6113 -8.7231 -2.0637
                  CHANNELS 6 Xposition Yposition Zposition Zrotation Xrotation Yrotation
                  JOINT LeftFinger31
                  {
                    OFFSET -0.1927 -3.8059 -0.2383
                    CHANNELS 6 Xposition Yposition Zposition Zrotation Xrotation Yrotation
                    JOINT LeftFinger32
                    {
                      OFFSET -0.1091 -2.1688 -0.1362
                      CHANNELS 6 Xposition Yposition Zposition Zrotation Xrotation Yrotation
                      End Site
                      {
                        OFFSET -0.2358 -1.9176 -0.0906
                      }
                    }
                  }
                }
                JOINT LeftFinger4
                {
                  OFFSET -0.6151 -8.0947 -3.5641
                  CHANNELS 6 Xposition Yposition Zposition Zrotation Xrotation Yrotation
                  JOINT LeftFinger41
                  {
                    OFFSET -0.4882 -2.341 -0.6462
                    CHANNELS 6 Xposition Yposition Zposition Zrotation Xrotation Yrotation
                    JOINT LeftFinger42
                    {
                      OFFSET -0.3575 -1.7167 -0.4742
                      CHANNELS 6 Xposition Yposition Zposition Zrotation Xrotation Yrotation
                      End Site
                      {
                        OFFSET -0.4187 -1.5237 -0.3496
                      }
                    }
                  }
                }
                JOINT LeftFinger0
                {
                  OFFSET -1.42 -1.8761 1.4223
                  CHANNELS 6 Xposition Yposition Zposition Zrotation Xrotation Yrotation
                  JOINT LeftFinger01
                  {
                    OFFSET -1.1471 -3.4929 2.6334
                    CHANNELS 6 Xposition Yposition Zposition Zrotation Xrotation Yrotation
                    JOINT LeftFinger02
                    {
                      OFFSET -0.823 -2.3 1.6571
                      CHANNELS 6 Xposition Yposition Zposition Zrotation Xrotation Yrotation
                      End Site
                      {
                        OFFSET -0.5822 -1.6914 1.1582
                      }
                    }
                  }
                }
              }
            }
          }
        }
        JOINT RightCollar
        {
          OFFSET -2.2603 21.606 7.4023
          CHANNELS 6 Xposition Yposition Zposition Zrotation Xrotation Yrotation
          JOINT RightShoulder
          {
            OFFSET -13.5187 -1.1334 -5.0155
            CHANNELS 6 Xposition Yposition Zposition Zrotation Xrotation Yrotation
            JOINT RightElbow
            {
              OFFSET 0.0994 -28.0499 -0.2431
              CHANNELS 6 Xposition Yposition Zposition Zrotation Xrotation Yrotation
              JOINT RightWrist
              {
                OFFSET -0.0679 -23.3996 -0.1402
                CHANNELS 6 Xposition Yposition Zposition Zrotation Xrotation Yrotation
                JOINT RightFinger1
                {
                  OFFSET -0.7932 -9.0691 2.5189
                  CHANNELS 6 Xposition Yposition Zposition Zrotation Xrotation Yrotation
                  JOINT RightFinger11
                  {
                    OFFSET 0.8272 -3.3923 0.5977
                    CHANNELS 6 Xposition Yposition Zposition Zrotation Xrotation Yrotation
                    JOINT RightFinger12
                    {
                      OFFSET 0.565 -2.3158 0.4082
                      CHANNELS 6 Xposition Yposition Zposition Zrotation Xrotation Yrotation
                      End Site
                      {
                        OFFSET 0.4919 -1.6479 0.2673
                      }
                    }
                  }
                }
                JOINT RightFinger2
                {
                  OFFSET -0.916 -9.2044 0.2193
                  CHANNELS 6 Xposition Yposition Zposition Zrotation Xrotation Yrotation
                  JOINT RightFinger21
                  {
                    OFFSET -0.0117 -4.1944 -0.0248
                    CHANNELS 6 Xposition Yposition Zposition Zrotation Xrotation Yrotation
                    JOINT RightFinger22
                    {
                      OFFSET -0.0071 -2.3249 -0.0142
                      CHANNELS 6 Xposition Yposition Zposition Zrotation Xrotation Yrotation
                      End Site
                      {
                        OFFSET 0.1475 -2.0882 0.0028
                      }
                    }
                  }
                }
                JOINT RightFinger3
                {
                  OFFSET -0.6113 -8.7231 -2.0637
                  CHANNELS 6 Xposition Yposition Zposition Zrotation Xrotation Yrotation
                  JOINT RightFinger31
                  {
                    OFFSET 0.1927 -3.8059 -0.2383
                    CHANNELS 6 Xposition Yposition Zposition Zrotation Xrotation Yrotation
                    JOINT RightFinger32
                    {
                      OFFSET 0.1091 -2.1688 -0.1362
                      CHANNELS 6 Xposition Yposition Zposition Zrotation Xrotation Yrotation
                      End Site
                      {
                        OFFSET 0.2358 -1.9176 -0.0906
                      }
                    }
                  }
                }
                JOINT RightFinger4
                {
                  OFFSET 0.6151 -8.0947 -3.564
                  CHANNELS 6 Xposition Yposition Zposition Zrotation Xrotation Yrotation
                  JOINT RightFinger41
                  {
                    OFFSET 0.4882 -2.341 -0.6462
                    CHANNELS 6 Xposition Yposition Zposition Zrotation Xrotation Yrotation
                    JOINT RightFinger42
                    {
                      OFFSET 0.3574 -1.7166 -0.4742
                      CHANNELS 6 Xposition Yposition Zposition Zrotation Xrotation Yrotation
                      End Site
                      {
                        OFFSET 0.4187 -1.5237 -0.3496
                      }
                    }
                  }
                }
                JOINT RightFinger0
                {
                  OFFSET 1.4199 -1.8761 1.4221
                  CHANNELS 6 Xposition Yposition Zposition Zrotation Xrotation Yrotation
                  JOINT RightFinger01
                  {
                    OFFSET 1.1472 -3.4929 2.6336
                    CHANNELS 6 Xposition Yposition Zposition Zrotation Xrotation Yrotation
                    JOINT RightFinger02
                    {
                      OFFSET 0.8229 -2.3 1.6571
                      CHANNELS 6 Xposition Yposition Zposition Zrotation Xrotation Yrotation
                      End Site
                      {
                        OFFSET 0.5822 -1.6914 1.1582
                      }
                    }
                  }
                }
              }
            }
          }
        }
      }
    }
  }
  JOINT RightHip
  {
    OFFSET -9.412 3.9771 -0.7758
    CHANNELS 6 Xposition Yposition Zposition Zrotation Xrotation Yrotation
    JOINT RightKnee
    {
      OFFSET -0.7531 -40.938 0
      CHANNELS 6 Xposition Yposition Zposition Zrotation Xrotation Yrotation
      JOINT RightAnkle
      {
        OFFSET 0 -40.1986 0
        CHANNELS 6 Xposition Yposition Zposition Zrotation Xrotation Yrotation
        JOINT RightToe
        {
          OFFSET 0 -4.4182 9.239
          CHANNELS 6 Xposition Yposition Zposition Zrotation Xrotation Yrotation
          End Site
          {
            OFFSET 0 0 6.1981
          }
        }
      }
    }
  }
  JOINT LeftHip
  {
    OFFSET 9.4119 3.9773 -0.7758
    CHANNELS 6 Xposition Yposition Zposition Zrotation Xrotation Yrotation
    JOINT LeftKnee
    {
      OFFSET 0.7532 -40.9383 0
      CHANNELS 6 Xposition Yposition Zposition Zrotation Xrotation Yrotation
      JOINT LeftAnkle
      {
        OFFSET 0 -40.1986 0
        CHANNELS 6 Xposition Yposition Zposition Zrotation Xrotation Yrotation
        JOINT LeftToe
        {
          OFFSET 0 -4.4182 9.239
          CHANNELS 6 Xposition Yposition Zposition Zrotation Xrotation Yrotation
          End Site
          {
            OFFSET 0 0 6.1981
          }
        }
      }
    }
  }
}
MOTION
Frames:	4
Frame Time:	0.0333333
5.72205e-005 65.662 3.42586 0 0 -0 0 8.7983 -4.7612 0 0 -0 0 8.0291 0.4195 0 0 -0 0 9.9351 -2.2114 0 0 -0 0 22.3885 -0.4656 0 0 -0 -0.0001 12.643 3.4389 0 0 -0 2.2603 21.606 7.4023 0 0 -12.5014 13.5163 -1.1332 -5.0146 88.1196 14.2451 10.6914 -0.0995 -28.05 -0.2431 -0.00160068 -0.00239207 0.000740045 0.0679 -23.3996 -0.1402 -8.4365e-005 7.00714e-005 -9.52055e-007 0.7932 -9.069 2.5189 9.93923e-017 -1.98785e-016 -1.59028e-015 -0.8272 -3.3923 0.5977 9.93923e-017 -5.96354e-016 -1.59028e-015 -0.5649 -2.3158 0.4082 -9.93923e-017 -5.96354e-016 -1.59028e-015 0.9159 -9.2044 0.2193 9.93923e-017 -1.98785e-016 -1.59028e-015 0.0117 -4.1944 -0.0248 -0.0128176 0.00232552 8.52707e-005 0.0071 -2.3249 -0.0142 9.93923e-017 5.96354e-016 -0 0.6113 -8.7231 -2.0637 9.93923e-017 -1.98785e-016 -1.59028e-015 -0.1927 -3.8059 -0.2383 -0.0160551 0.00299681 0.000857156 -0.1091 -2.1688 -0.1362 -2.48481e-016 0 3.18055e-015 -0.6151 -8.0947 -3.5641 9.93923e-017 -1.98785e-016 -1.59028e-015 -0.4882 -2.341 -0.6462 -0.0125865 0.0031206 0.00282719 -0.3575 -1.7167 -0.4742 0 1.98785e-016 -0 -1.42 -1.8761 1.4223 9.93923e-017 -1.98785e-016 -1.59028e-015 -1.1471 -3.4929 2.6334 9.93923e-017 -5.96354e-016 -1.59028e-015 -0.823 -2.3 1.6571 -9.93923e-017 -5.96354e-016 -1.59028e-015 -2.2603 21.606 7.4023 -0.865644 0.16582 7.03859 -13.5187 -1.1334 -5.0155 -88.0329 10.2057 -10.5567 0.0994 -28.0499 -0.2431 0.0015593 -0.00248883 -0.000788628 -0.0679 -23.3996 -0.1402 7.87605e-005 4.10553e-005 1.24965e-005 -0.7932 -9.0691 2.5189 -3.97569e-016 -7.95139e-016 3.18055e-015 0.8272 -3.3923 0.5977 -1.98785e-016 -3.97569e-016 3.18055e-015 0.565 -2.3158 0.4082 -1.98785e-016 0 3.18055e-015 -0.916 -9.2044 0.2193 -3.97569e-016 -7.95139e-016 3.18055e-015 -0.0117 -4.1944 -0.0248 0.0129473 0.00231697 -8.70038e-005 -0.0071 -2.3249 -0.0142 9.93923e-017 -7.95139e-016 1.59028e-015 -0.6113 -8.7231 -2.0637 -3.97569e-016 -7.95139e-016 3.18055e-015 0.1927 -3.8059 -0.2383 0.0163314 0.00303369 -0.000872333 0.1091 -2.1688 -0.1362 3.97569e-016 7.95139e-016 -3.18055e-015 0.6151 -8.0947 -3.564 -3.97569e-016 -7.95139e-016 3.18055e-015 0.4882 -2.341 -0.6462 0.0145763 0.00367772 -0.00326275 0.3574 -1.7166 -0.4742 9.93923e-017 -3.97569e-016 -0 1.4199 -1.8761 1.4221 -3.97569e-016 -7.95139e-016 3.18055e-015 1.1472 -3.4929 2.6336 -1.98785e-016 -3.97569e-016 3.18055e-015 0.8229 -2.3 1.6571 -1.98785e-016 0 3.18055e-015 -9.412 3.9771 -0.7758 3.42482 1.32465 -0.0626183 -0.7531 -40.938 0 0.000117508 0.717283 0.000978199 0 -40.1986 0 -3.4257 -2.04197 -0.0604716 8.88178e-016 -4.4182 9.239 6.47761e-025 0 -0 9.4119 3.9773 -0.7758 -3.42483 1.34017 0.0627307 0.7532 -40.9383 -2.22045e-016 -0.000193936 0.682302 -0.0013703 -8.88179e-016 -40.1986 0 3.42574 -2.02253 0.0595886 -8.88178e-016 -4.4182 9.239 -8.45714e-024 0 -7.40531e-025 
0.31964 17.4448 10.1404 9.68641e-009 -66.6681 9.70451e-009 0 8.7983 -4.7612 -0.0466681 6.34479 -0.0808734 -5.55112e-017 8.0291 0.4195 -0.0850505 12.6896 -0.157978 0 9.9351 -2.2114 -0.0850507 12.6897 -0.157978 0 22.3885 -0.4656 -5.5829e-008 13.3321 -2.09557e-008 -0.0001 12.643 3.4389 4.70001e-008 6.711 -1.85526e-007 2.2603 21.606 7.4023 0.459893 0.322381 -6.12579 13.5163 -1.1332 -5.0146 25.4859 30.1458 22.8682 -0.0995 -28.05 -0.2431 -13.9983 -53.7212 -33.7354 0.0679 -23.3996 -0.1402 -4.39082 1.42689 -17.5915 0.7932 -9.069 2.5189 -1.35842e-006 -2.46954e-006 -1.03402e-006 -0.8272 -3.3923 0.5977 3.66865e-006 -6.65609e-006 -8.18241e-006 -0.5649 -2.3158 0.4082 -5.96354e-016 3.18055e-015 7.15625e-015 0.9159 -9.2044 0.2193 -1.35842e-006 -2.46954e-006 -1.03402e-006 0.0117 -4.1944 -0.0248 -0.0128091 0.00232263 8.64674e-005 0.0071 -2.3249 -0.0142 -1.35837e-006 5.648e-007 -1.03408e-006 0.6113 -8.7231 -2.0637 -1.35842e-006 -2.46954e-006 -1.03402e-006 -0.1927 -3.8059 -0.2383 -0.0160114 0.00298205 0.000856027 -0.1091 -2.1688 -0.1362 1.73542e-006 3.27367e-006 -2.51738e-006 -0.6151 -8.0947 -3.5641 -1.35842e-006 -2.46954e-006 -1.03402e-006 -0.4882 -2.341 -0.6462 -0.0125415 0.00311694 0.0028164 -0.3575 -1.7167 -0.4742 1.93852e-007 1.63713e-006 -3.14714e-006 -1.42 -1.8761 1.4223 -1.35842e-006 -2.46954e-006 -1.03402e-006 -1.1471 -3.4929 2.6334 3.66865e-006 -6.65609e-006 -8.18241e-006 -0.823 -2.3 1.6571 -5.96354e-016 3.18055e-015 7.15625e-015 -2.2603 21.606 7.4023 -1.30438 0.583507 0.66583 -13.5187 -1.1334 -5.0155 -27.9473 28.9498 -17.025 0.0994 -28.0499 -0.2431 12.6453 -54.4549 32.0448 -0.0679 -23.3996 -0.1402 4.04935 1.06133 17.714 -0.7932 -9.0691 2.5189 -9.71175e-007 -1.68458e-006 -4.19929e-006 0.8272 -3.3923 0.5977 1.32206e-006 6.36111e-015 1.08068e-006 0.565 -2.3158 0.4082 1.67294e-006 -1.68458e-006 -2.03793e-006 -0.916 -9.2044 0.2193 -9.71175e-007 -1.68458e-006 -4.19929e-006 -0.0117 -4.1944 -0.0248 0.0129851 0.00230894 -9.10643e-005 -0.0071 -2.3249 -0.0142 4.71509e-008 1.86658e-006 -2.76539e-006 -0.6113 -8.7231 -2.0637 -9.71175e-007 -1.68458e-006 -4.19929e-006 0.1927 -3.8059 -0.2383 0.0162927 0.0030226 -0.000867404 0.1091 -2.1688 -0.1362 1.50331e-015 -9.54166e-015 8.49804e-015 0.6151 -8.0947 -3.564 -9.71175e-007 -1.68458e-006 -4.19929e-006 0.4882 -2.341 -0.6462 0.0145845 0.00367276 -0.0032589 0.3574 -1.7166 -0.4742 4.01326e-006 -4.39381e-006 4.76749e-007 1.4199 -1.8761 1.4221 -9.71175e-007 -1.68458e-006 -4.19929e-006 1.1472 -3.4929 2.6336 1.32206e-006 6.36111e-015 1.08068e-006 0.8229 -2.3 1.6571 1.67294e-006 -1.68458e-006 -2.03793e-006 -9.412 3.9771 -0.7758 -4.7556 -37.4981 -8.79426 -0.7531 -40.938 0 172.853 78.3374 -176.28 8.88178e-016 -40.1986 -7.10543e-015 -6.31484 5.08327 -1.83171 8.88179e-016 -4.4182 9.239 -1.49089e-015 3.97569e-016 3.18055e-015 9.4119 3.9773 -0.7758 11.597 2.16039 0.801037 0.7532 -40.9383 -3.55271e-015 -1.48022 6.67095 0.474912 0 -40.1986 -7.10543e-015 7.2554 8.30063 0.771909 0 -4.4182 9.239 3.67215e-007 -3.54672e-006 -9.43513e-007 
0.618924 -3.10693 9.13752 180 -83.3313 180 0 8.7983 -4.7612 -0.0671155 9.17618 -0.115845 -1.11022e-016 8.0291 0.4195 -0.117459 18.3525 -0.22506 0 9.9351 -2.2114 -0.117459 18.3526 -0.225061 1.66534e-016 22.3885 -0.4656 5.84275e-007 19.3314 1.67441e-006 -0.0001 12.643 3.4389 8.01375e-008 9.50626 -1.02612e-007 2.2603 21.606 7.4023 0.643515 0.464081 -3.25661 13.5163 -1.1332 -5.0146 -3.2283 34.5217 25.8331 -0.0995 -28.05 -0.2431 -44.6643 -75.4685 -73.5833 0.0679 -23.3996 -0.1402 -6.33753 1.99939 -25.492 0.7932 -9.06901 2.5189 -7.95139e-016 7.95139e-016 1.44119e-015 -0.8272 -3.3923 0.5977 -0 0 1.49089e-015 -0.5649 -2.3158 0.4082 -1.59028e-015 7.95139e-016 4.72114e-015 0.9159 -9.20441 0.2193 -7.95139e-016 7.95139e-016 1.44119e-015 0.0117 -4.1944 -0.0248 -0.0128319 0.00233244 8.05188e-005 0.0071 -2.3249 -0.0142 1.59028e-015 7.95139e-016 -3.67752e-015 0.6113 -8.72311 -2.0637 -7.95139e-016 7.95139e-016 1.44119e-015 -0.1927 -3.8059 -0.2383 -0.0160678 0.00299272 0.000859108 -0.1091 -2.1688 -0.1362 -7.95139e-016 -7.95139e-016 1.70955e-014 -0.6151 -8.09471 -3.5641 -7.95139e-016 7.95139e-016 1.44119e-015 -0.4882 -2.341 -0.6462 -0.0126142 0.00312121 0.00282786 -0.3575 -1.7167 -0.4742 -1.59028e-015 -1.59028e-015 3.18055e-015 -1.42 -1.8761 1.4223 -7.95139e-016 7.95139e-016 1.44119e-015 -1.1471 -3.4929 2.6334 -0 0 1.49089e-015 -0.823 -2.3 1.6571 -1.59028e-015 7.95139e-016 4.72114e-015 -2.2603 21.606 7.4023 -1.47505 0.767111 -2.20226 -13.5187 -1.1334 -5.0155 -0.373868 35.9098 -18.7173 0.0994 -28.0499 -0.2431 42.5816 -77.0282 70.8842 -0.0679 -23.3996 -0.1402 5.88083 1.44173 25.6708 -0.7932 -9.06911 2.5189 8.49595e-007 -1.05185e-005 1.11573e-005 0.8272 -3.3923 0.5977 -1.59028e-015 -7.95139e-016 1.48095e-014 0.565 -2.3158 0.4082 7.1726e-032 -7.95139e-016 5.1684e-015 -0.916 -9.20441 0.2193 8.49595e-007 -1.05185e-005 1.11573e-005 -0.0117 -4.1944 -0.0248 0.0129413 0.00231324 -9.58087e-005 -0.0071 -2.3249 -0.0142 -2.38542e-015 -7.95139e-016 1.78906e-015 -0.6113 -8.72311 -2.0637 8.49595e-007 -1.05185e-005 1.11573e-005 0.1927 -3.8059 -0.2383 0.0163191 0.00303837 -0.000877737 0.1091 -2.1688 -0.1362 7.95139e-016 7.95139e-016 -4.07509e-015 0.6151 -8.0947 -3.564 8.49595e-007 -1.05185e-005 1.11573e-005 0.4882 -2.341 -0.6462 0.0145628 0.00367586 -0.00326969 0.3574 -1.7166 -0.4742 -5.27055e-007 7.05378e-006 4.07101e-007 1.4199 -1.8761 1.4221 8.49595e-007 -1.05185e-005 1.11573e-005 1.1472 -3.4929 2.6336 -1.59028e-015 -7.95139e-016 1.48095e-014 0.8229 -2.3 1.6571 7.1726e-032 -7.95139e-016 5.1684e-015 -9.412 3.9771 -0.7758 -10.4462 -50.1476 -17.6611 -0.7531 -40.938 0 177.37 34.25 176.376 2.66454e-015 -40.1986 0 -6.35994 4.84619 -4.53559 8.88178e-016 -4.4182 9.239 1.39149e-015 1.19271e-015 1.59028e-015 9.4119 3.9773 -0.7758 18.2034 2.47865 1.12786 0.7532 -40.9383 0 -2.16099 9.8708 0.694397 -1.77636e-015 -40.1986 8.88178e-016 9.03014 12.4934 1.15744 0 -4.4182 9.239 3.31043e-031 -7.95139e-015 2.38542e-015 
0.538211 1.51498 9.59728 180 -89.9981 180 0 8.7983 -4.7612 -0.0617666 8.49446 -0.10659 0 8.0291 0.4195 -0.10918 16.989 -0.20728 0 9.9351 -2.2114 -0.10918 16.9891 -0.207281 1.11022e-016 22.3885 -0.4656 2.83042e-007 17.9983 4.95955e-007 -0.0001 12.643 3.4389 1.64857e-007 8.38566 -4.88321e-007 2.2603 21.606 7.4023 0.603948 0.432912 -3.89422 13.5163 -1.1332 -5.0146 3.07325 33.5957 25.3981 -0.0995 -28.05 -0.2431 -31.6775 -71.0346 -58.3989 0.0679 -23.3996 -0.1402 -5.90598 1.8763 -23.7373 0.7932 -9.069 2.5189 3.90743e-006 -4.5833e-006 -8.22851e-006 -0.8272 -3.3923 0.5977 -9.27446e-006 1.30347e-005 9.36464e-006 -0.5649 -2.3158 0.4082 2.02051e-006 1.96369e-006 -1.80868e-006 0.9159 -9.2044 0.2193 3.90743e-006 -4.5833e-006 -8.22851e-006 0.0117 -4.1944 -0.0248 -0.0128104 0.0023252 9.0481e-005 0.0071 -2.3249 -0.0142 8.22781e-007 4.24637e-007 -2.99688e-006 0.6113 -8.7231 -2.0637 3.90743e-006 -4.5833e-006 -8.22851e-006 -0.1927 -3.8059 -0.2383 -0.0160422 0.00299914 0.000867867 -0.1091 -2.1688 -0.1362 -2.176e-006 1.27269e-006 -5.81447e-006 -0.6151 -8.0947 -3.5641 3.90743e-006 -4.5833e-006 -8.22851e-006 -0.4882 -2.341 -0.6462 -0.0126043 0.00312621 0.00283637 -0.3575 -1.7167 -0.4742 1.67325e-006 9.2349e-006 3.36364e-007 -1.42 -1.8761 1.4223 3.90743e-006 -4.5833e-006 -8.22851e-006 -1.1471 -3.4929 2.6334 -9.27446e-006 1.30347e-005 9.36464e-006 -0.823 -2.3 1.6571 2.02051e-006 1.96369e-006 -1.80868e-006 -2.2603 21.606 7.4023 -1.43854 0.726689 -1.56488 -13.5187 -1.1334 -5.0155 -6.47113 34.3901 -18.449 0.0994 -28.0499 -0.2431 29.2866 -72.3507 55.458 -0.0679 -23.3996 -0.1402 5.47266 1.36251 23.9037 -0.7932 -9.0691 2.5189 1.59028e-015 1.59028e-015 -9.83984e-015 0.8272 -3.3923 0.5977 2.19941e-006 -7.36104e-007 3.66418e-006 0.565 -2.3158 0.4082 3.97569e-016 3.18055e-015 -5.66536e-015 -0.916 -9.2044 0.2193 1.59028e-015 1.59028e-015 -9.83984e-015 -0.0117 -4.1944 -0.0248 0.0129495 0.00232107 -8.66223e-005 -0.0071 -2.3249 -0.0142 7.95139e-016 -1.59028e-015 1.19271e-015 -0.6113 -8.7231 -2.0637 1.59028e-015 1.59028e-015 -9.83984e-015 0.1927 -3.8059 -0.2383 0.0163019 0.00303654 -0.000869719 0.1091 -2.1688 -0.1362 -7.95139e-016 -6.36111e-015 3.47873e-015 0.6151 -8.0947 -3.564 1.59028e-015 1.59028e-015 -9.83984e-015 0.4882 -2.341 -0.6462 0.0145732 0.00368606 -0.00325474 0.3574 -1.7166 -0.4742 4.03015e-006 -3.50905e-006 -3.53938e-006 1.4199 -1.8761 1.4221 1.59028e-015 1.59028e-015 -9.83984e-015 1.1472 -3.4929 2.6336 2.19941e-006 -7.36104e-007 3.66418e-006 0.8229 -2.3 1.6571 3.97569e-016 3.18055e-015 -5.66536e-015 -9.412 3.9771 -0.7758 -10.0047 -48.1366 -15.6597 -0.7531 -40.938 -8.88178e-016 177.045 43.9981 177.74 8.88179e-016 -40.1986 0 -6.6169 5.75541 -3.52833 -1.33227e-015 -4.4182 9.239 4.47447e-007 4.70725e-007 -3.95083e-007 9.4119 3.9773 -0.7758 16.7425 2.4978 1.05406 0.7532 -40.9383 0 -2.00787 8.94727 0.63469 -5.32907e-015 -40.1986 1.77636e-015 8.63579 11.6843 1.05763 3.55271e-015 -4.4182 9.239 -4.30516e-007 6.80895e-006 -2.95839e-006 
